<?xml version="1.0" standalone="no"?>
<!DOCTYPE svg PUBLIC "-//W3C//DTD SVG 20010904//EN"
 "http://www.w3.org/TR/2001/REC-SVG-20010904/DTD/svg10.dtd">
<svg version="1.0" xmlns="http://www.w3.org/2000/svg"
 width="260.000000pt" height="260.000000pt" viewBox="0 0 260.000000 260.000000"
 preserveAspectRatio="xMidYMid meet">
<metadata>
Created by potrace 1.14, written by Peter Selinger 2001-2017
</metadata>
<g transform="translate(0.000000,260.000000) scale(0.100000,-0.100000)"
fill="#000000" stroke="none">
<path d="M580 2105 c-266 -60 -464 -238 -548 -493 -21 -65 -25 -97 -26 -202
-1 -137 10 -189 67 -314 l31 -68 -26 -72 c-14 -39 -39 -106 -54 -148 l-29 -78
22 -22 22 -22 189 33 188 33 80 -27 c107 -37 288 -46 397 -21 71 17 261 102
254 115 -78 145 -101 233 -101 376 0 203 61 352 206 499 49 49 88 91 88 93 0
3 -21 31 -46 64 -85 108 -236 205 -379 244 -86 23 -255 28 -335 10z m200 -430
c0 -30 5 -37 40 -55 40 -20 62 -47 75 -87 6 -21 3 -23 -26 -23 -24 0 -39 7
-54 26 -37 46 -130 50 -176 8 -45 -41 -6 -83 101 -109 117 -29 169 -79 156
-150 -8 -43 -37 -78 -80 -99 -29 -14 -35 -22 -38 -54 l-3 -37 -50 0 -50 0 -5
38 c-4 30 -11 40 -40 55 -35 17 -80 73 -80 98 0 25 60 17 81 -10 39 -50 120
-56 174 -15 52 42 25 78 -82 107 -98 28 -136 47 -156 81 -36 61 -7 136 66 174
32 16 37 24 37 53 l0 34 55 0 55 0 0 -35z"/>
<path d="M1694 1891 c-214 -58 -390 -204 -480 -398 -46 -98 -64 -180 -64 -297
0 -121 19 -205 71 -311 89 -182 244 -313 449 -377 63 -19 96 -23 205 -22 118
0 138 3 220 31 l90 31 185 -34 c167 -30 187 -32 207 -18 13 8 23 22 23 32 0 9
-24 80 -53 156 l-54 139 24 41 c43 75 74 194 80 301 7 134 -12 222 -77 352
-86 174 -225 294 -415 359 -109 37 -302 44 -411 15z m236 -420 c0 -33 4 -40
29 -51 38 -15 78 -58 86 -92 7 -27 5 -28 -28 -28 -26 0 -37 5 -42 19 -17 53
-136 65 -183 18 -45 -46 -13 -81 98 -107 30 -7 72 -21 92 -31 94 -48 88 -170
-11 -215 -37 -17 -41 -22 -41 -56 l0 -38 -55 0 -55 0 0 38 c-1 33 -5 39 -42
57 -42 21 -86 84 -73 105 12 19 63 12 70 -10 9 -27 55 -50 102 -50 52 0 103
32 103 65 0 32 -26 48 -124 74 -43 12 -91 31 -107 42 -31 22 -54 79 -45 114 9
34 51 80 86 95 25 10 30 18 30 45 0 42 5 45 62 45 l48 0 0 -39z"/>
</g>
</svg>
